<svg width="131" height="26" viewBox="0 0 131 26" fill="none" xmlns="http://www.w3.org/2000/svg">
<path d="M9.526 8.874V15.088C9.526 16.05 9.253 16.791 8.707 17.311C8.16967 17.831 7.44167 18.091 6.523 18.091C5.561 18.091 4.78967 17.818 4.209 17.272C3.62833 16.726 3.338 15.9503 3.338 14.945H5.548C5.548 15.3263 5.626 15.6167 5.782 15.816C5.938 16.0067 6.16333 16.102 6.458 16.102C6.72667 16.102 6.93467 16.0153 7.082 15.842C7.22933 15.6687 7.303 15.4173 7.303 15.088V8.874H9.526ZM18.4846 10.746V18H16.2616V17.012C16.0363 17.3327 15.7286 17.5927 15.3386 17.792C14.9573 17.9827 14.5326 18.078 14.0646 18.078C13.51 18.078 13.0203 17.9567 12.5956 17.714C12.171 17.4627 11.8416 17.103 11.6076 16.635C11.3736 16.167 11.2566 15.6167 11.2566 14.984V10.746H13.4666V14.685C13.4666 15.1703 13.5923 15.5473 13.8436 15.816C14.095 16.0847 14.433 16.219 14.8576 16.219C15.291 16.219 15.6333 16.0847 15.8846 15.816C16.136 15.5473 16.2616 15.1703 16.2616 14.685V10.746H18.4846ZM29.3374 10.668C30.2387 10.668 30.9537 10.941 31.4824 11.487C32.0197 12.033 32.2884 12.7913 32.2884 13.762V18H30.0784V14.061C30.0784 13.593 29.9527 13.2333 29.7014 12.982C29.4587 12.722 29.1207 12.592 28.6874 12.592C28.2541 12.592 27.9117 12.722 27.6604 12.982C27.4177 13.2333 27.2964 13.593 27.2964 14.061V18H25.0864V14.061C25.0864 13.593 24.9607 13.2333 24.7094 12.982C24.4667 12.722 24.1287 12.592 23.6954 12.592C23.2621 12.592 22.9197 12.722 22.6684 12.982C22.4257 13.2333 22.3044 13.593 22.3044 14.061V18H20.0814V10.746H22.3044V11.656C22.5297 11.3527 22.8244 11.1143 23.1884 10.941C23.5524 10.759 23.9641 10.668 24.4234 10.668C24.9694 10.668 25.4547 10.785 25.8794 11.019C26.3127 11.253 26.6507 11.5867 26.8934 12.02C27.1447 11.6213 27.4871 11.2963 27.9204 11.045C28.3537 10.7937 28.8261 10.668 29.3374 10.668ZM33.4011 14.36C33.4011 13.6147 33.5398 12.9603 33.8171 12.397C34.1031 11.8337 34.4888 11.4003 34.9741 11.097C35.4594 10.7937 36.0011 10.642 36.5991 10.642C37.1104 10.642 37.5568 10.746 37.9381 10.954C38.3281 11.162 38.6271 11.435 38.8351 11.773V10.746H41.0581V18H38.8351V16.973C38.6184 17.311 38.3151 17.584 37.9251 17.792C37.5438 18 37.0974 18.104 36.5861 18.104C35.9968 18.104 35.4594 17.9523 34.9741 17.649C34.4888 17.337 34.1031 16.8993 33.8171 16.336C33.5398 15.764 33.4011 15.1053 33.4011 14.36ZM38.8351 14.373C38.8351 13.8183 38.6791 13.3807 38.3671 13.06C38.0638 12.7393 37.6911 12.579 37.2491 12.579C36.8071 12.579 36.4301 12.7393 36.1181 13.06C35.8148 13.372 35.6631 13.8053 35.6631 14.36C35.6631 14.9147 35.8148 15.3567 36.1181 15.686C36.4301 16.0067 36.8071 16.167 37.2491 16.167C37.6911 16.167 38.0638 16.0067 38.3671 15.686C38.6791 15.3653 38.8351 14.9277 38.8351 14.373ZM47.0864 10.668C47.9357 10.668 48.6117 10.9453 49.1144 11.5C49.6257 12.046 49.8814 12.8 49.8814 13.762V18H47.6714V14.061C47.6714 13.5757 47.5457 13.1987 47.2944 12.93C47.043 12.6613 46.705 12.527 46.2804 12.527C45.8557 12.527 45.5177 12.6613 45.2664 12.93C45.015 13.1987 44.8894 13.5757 44.8894 14.061V18H42.6664V10.746H44.8894V11.708C45.1147 11.3873 45.418 11.136 45.7994 10.954C46.1807 10.7633 46.6097 10.668 47.0864 10.668ZM52.5311 9.992C52.1411 9.992 51.8205 9.87933 51.5691 9.654C51.3265 9.42 51.2051 9.134 51.2051 8.796C51.2051 8.44933 51.3265 8.16333 51.5691 7.938C51.8205 7.704 52.1411 7.587 52.5311 7.587C52.9125 7.587 53.2245 7.704 53.4671 7.938C53.7185 8.16333 53.8441 8.44933 53.8441 8.796C53.8441 9.134 53.7185 9.42 53.4671 9.654C53.2245 9.87933 52.9125 9.992 52.5311 9.992ZM53.6491 18.936C53.6491 19.8287 53.4238 20.47 52.9731 20.86C52.5225 21.2587 51.8941 21.458 51.0881 21.458H50.2171V19.573H50.7501C50.9928 19.573 51.1661 19.5253 51.2701 19.43C51.3741 19.3347 51.4261 19.1787 51.4261 18.962V10.746H53.6491V18.936ZM56.3654 9.992C55.9754 9.992 55.6547 9.87933 55.4034 9.654C55.1607 9.42 55.0394 9.134 55.0394 8.796C55.0394 8.44933 55.1607 8.16333 55.4034 7.938C55.6547 7.704 55.9754 7.587 56.3654 7.587C56.7467 7.587 57.0587 7.704 57.3014 7.938C57.5527 8.16333 57.6784 8.44933 57.6784 8.796C57.6784 9.134 57.5527 9.42 57.3014 9.654C57.0587 9.87933 56.7467 9.992 56.3654 9.992ZM57.4704 10.746V18H55.2474V10.746H57.4704ZM68.4013 8.874V10.655H65.9833V18H63.7603V10.655H61.3423V8.874H68.4013ZM71.7399 11.955C71.9999 11.5563 72.3249 11.2443 72.7149 11.019C73.1049 10.785 73.5383 10.668 74.0149 10.668V13.021H73.4039C72.8493 13.021 72.4333 13.1423 72.1559 13.385C71.8786 13.619 71.7399 14.035 71.7399 14.633V18H69.5169V10.746H71.7399V11.955ZM74.6355 14.36C74.6355 13.6147 74.7742 12.9603 75.0515 12.397C75.3375 11.8337 75.7232 11.4003 76.2085 11.097C76.6938 10.7937 77.2355 10.642 77.8335 10.642C78.3448 10.642 78.7912 10.746 79.1725 10.954C79.5625 11.162 79.8615 11.435 80.0695 11.773V10.746H82.2925V18H80.0695V16.973C79.8528 17.311 79.5495 17.584 79.1595 17.792C78.7782 18 78.3318 18.104 77.8205 18.104C77.2312 18.104 76.6938 17.9523 76.2085 17.649C75.7232 17.337 75.3375 16.8993 75.0515 16.336C74.7742 15.764 74.6355 15.1053 74.6355 14.36ZM80.0695 14.373C80.0695 13.8183 79.9135 13.3807 79.6015 13.06C79.2982 12.7393 78.9255 12.579 78.4835 12.579C78.0415 12.579 77.6645 12.7393 77.3525 13.06C77.0492 13.372 76.8975 13.8053 76.8975 14.36C76.8975 14.9147 77.0492 15.3567 77.3525 15.686C77.6645 16.0067 78.0415 16.167 78.4835 16.167C78.9255 16.167 79.2982 16.0067 79.6015 15.686C79.9135 15.3653 80.0695 14.9277 80.0695 14.373ZM87.1637 15.92L88.7367 10.746H91.1027L88.5287 18H85.7857L83.2117 10.746H85.5907L87.1637 15.92ZM98.8764 14.256C98.8764 14.464 98.8634 14.6807 98.8374 14.906H93.8064C93.8411 15.3567 93.9841 15.7033 94.2354 15.946C94.4954 16.18 94.8118 16.297 95.1844 16.297C95.7391 16.297 96.1248 16.063 96.3414 15.595H98.7074C98.5861 16.0717 98.3651 16.5007 98.0444 16.882C97.7324 17.2633 97.3381 17.5623 96.8614 17.779C96.3848 17.9957 95.8518 18.104 95.2624 18.104C94.5518 18.104 93.9191 17.9523 93.3644 17.649C92.8098 17.3457 92.3764 16.9123 92.0644 16.349C91.7524 15.7857 91.5964 15.127 91.5964 14.373C91.5964 13.619 91.7481 12.9603 92.0514 12.397C92.3634 11.8337 92.7968 11.4003 93.3514 11.097C93.9061 10.7937 94.5431 10.642 95.2624 10.642C95.9644 10.642 96.5884 10.7893 97.1344 11.084C97.6804 11.3787 98.1051 11.799 98.4084 12.345C98.7204 12.891 98.8764 13.528 98.8764 14.256ZM96.6014 13.671C96.6014 13.2897 96.4714 12.9863 96.2114 12.761C95.9514 12.5357 95.6264 12.423 95.2364 12.423C94.8638 12.423 94.5474 12.5313 94.2874 12.748C94.0361 12.9647 93.8801 13.2723 93.8194 13.671H96.6014ZM102.272 8.38V18H100.049V8.38H102.272ZM106.106 8.38V18H103.883V8.38H106.106ZM114.555 14.256C114.555 14.464 114.542 14.6807 114.516 14.906H109.485C109.52 15.3567 109.663 15.7033 109.914 15.946C110.174 16.18 110.49 16.297 110.863 16.297C111.418 16.297 111.803 16.063 112.02 15.595H114.386C114.265 16.0717 114.044 16.5007 113.723 16.882C113.411 17.2633 113.017 17.5623 112.54 17.779C112.063 17.9957 111.53 18.104 110.941 18.104C110.23 18.104 109.598 17.9523 109.043 17.649C108.488 17.3457 108.055 16.9123 107.743 16.349C107.431 15.7857 107.275 15.127 107.275 14.373C107.275 13.619 107.427 12.9603 107.73 12.397C108.042 11.8337 108.475 11.4003 109.03 11.097C109.585 10.7937 110.222 10.642 110.941 10.642C111.643 10.642 112.267 10.7893 112.813 11.084C113.359 11.3787 113.784 11.799 114.087 12.345C114.399 12.891 114.555 13.528 114.555 14.256ZM112.28 13.671C112.28 13.2897 112.15 12.9863 111.89 12.761C111.63 12.5357 111.305 12.423 110.915 12.423C110.542 12.423 110.226 12.5313 109.966 12.748C109.715 12.9647 109.559 13.2723 109.498 13.671H112.28ZM117.951 11.955C118.211 11.5563 118.536 11.2443 118.926 11.019C119.316 10.785 119.749 10.668 120.226 10.668V13.021H119.615C119.06 13.021 118.644 13.1423 118.367 13.385C118.09 13.619 117.951 14.035 117.951 14.633V18H115.728V10.746H117.951V11.955ZM124.239 18.104C123.607 18.104 123.043 17.9957 122.549 17.779C122.055 17.5623 121.665 17.2677 121.379 16.895C121.093 16.5137 120.933 16.089 120.898 15.621H123.095C123.121 15.8723 123.238 16.076 123.446 16.232C123.654 16.388 123.91 16.466 124.213 16.466C124.491 16.466 124.703 16.414 124.85 16.31C125.006 16.1973 125.084 16.0543 125.084 15.881C125.084 15.673 124.976 15.5213 124.759 15.426C124.543 15.322 124.192 15.2093 123.706 15.088C123.186 14.9667 122.753 14.841 122.406 14.711C122.06 14.5723 121.761 14.36 121.509 14.074C121.258 13.7793 121.132 13.385 121.132 12.891C121.132 12.475 121.245 12.098 121.47 11.76C121.704 11.4133 122.042 11.1403 122.484 10.941C122.935 10.7417 123.468 10.642 124.083 10.642C124.993 10.642 125.708 10.8673 126.228 11.318C126.757 11.7687 127.06 12.3667 127.138 13.112H125.084C125.05 12.8607 124.937 12.6613 124.746 12.514C124.564 12.3667 124.322 12.293 124.018 12.293C123.758 12.293 123.559 12.345 123.42 12.449C123.282 12.5443 123.212 12.6787 123.212 12.852C123.212 13.06 123.321 13.216 123.537 13.32C123.763 13.424 124.109 13.528 124.577 13.632C125.115 13.7707 125.552 13.9093 125.89 14.048C126.228 14.178 126.523 14.3947 126.774 14.698C127.034 14.9927 127.169 15.3913 127.177 15.894C127.177 16.3187 127.056 16.7 126.813 17.038C126.579 17.3673 126.237 17.6273 125.786 17.818C125.344 18.0087 124.829 18.104 124.239 18.104Z" fill="black"/>
</svg>
